<mxfile host="app.diagrams.net" modified="2023-02-24T15:29:26.702Z" agent="5.0 (Windows NT 10.0; Win64; x64) AppleWebKit/537.36 (KHTML, like Gecko) Chrome/109.0.0.0 Safari/537.36 OPR/95.0.0.0" etag="D61jJFNRnuig_TH-5r4a" version="20.8.23" type="github">
  <diagram name="Page-1" id="oLp8PXrFoAo25mWbSfcb">
    <mxGraphModel dx="2243" dy="1858" grid="1" gridSize="10" guides="1" tooltips="1" connect="1" arrows="1" fold="1" page="1" pageScale="1" pageWidth="850" pageHeight="1100" math="0" shadow="0">
      <root>
        <mxCell id="0" />
        <mxCell id="1" parent="0" />
        <mxCell id="z9_6NJVO3Y7MdxRCK-k6-3" value="" style="edgeStyle=orthogonalEdgeStyle;rounded=0;orthogonalLoop=1;jettySize=auto;html=1;" parent="1" source="z9_6NJVO3Y7MdxRCK-k6-1" target="z9_6NJVO3Y7MdxRCK-k6-2" edge="1">
          <mxGeometry relative="1" as="geometry" />
        </mxCell>
        <mxCell id="z9_6NJVO3Y7MdxRCK-k6-1" value="360 Spruce Sapling" style="whiteSpace=wrap;html=1;aspect=fixed;" parent="1" vertex="1">
          <mxGeometry x="40" y="40" width="80" height="80" as="geometry" />
        </mxCell>
        <mxCell id="z9_6NJVO3Y7MdxRCK-k6-7" value="" style="edgeStyle=orthogonalEdgeStyle;rounded=0;orthogonalLoop=1;jettySize=auto;html=1;" parent="1" source="z9_6NJVO3Y7MdxRCK-k6-2" target="z9_6NJVO3Y7MdxRCK-k6-6" edge="1">
          <mxGeometry relative="1" as="geometry" />
        </mxCell>
        <mxCell id="z9_6NJVO3Y7MdxRCK-k6-2" value="MV&lt;br&gt;Brewing&amp;nbsp;&lt;br&gt;Machine" style="rhombus;whiteSpace=wrap;html=1;" parent="1" vertex="1">
          <mxGeometry x="200" y="40" width="80" height="80" as="geometry" />
        </mxCell>
        <mxCell id="z9_6NJVO3Y7MdxRCK-k6-5" value="" style="edgeStyle=orthogonalEdgeStyle;rounded=0;orthogonalLoop=1;jettySize=auto;html=1;" parent="1" source="z9_6NJVO3Y7MdxRCK-k6-4" target="z9_6NJVO3Y7MdxRCK-k6-2" edge="1">
          <mxGeometry relative="1" as="geometry" />
        </mxCell>
        <mxCell id="z9_6NJVO3Y7MdxRCK-k6-4" value="36,000L&lt;br&gt;Water" style="whiteSpace=wrap;html=1;aspect=fixed;" parent="1" vertex="1">
          <mxGeometry x="200" y="-120" width="80" height="80" as="geometry" />
        </mxCell>
        <mxCell id="z9_6NJVO3Y7MdxRCK-k6-11" value="" style="edgeStyle=orthogonalEdgeStyle;rounded=0;orthogonalLoop=1;jettySize=auto;html=1;" parent="1" source="z9_6NJVO3Y7MdxRCK-k6-6" target="z9_6NJVO3Y7MdxRCK-k6-10" edge="1">
          <mxGeometry relative="1" as="geometry" />
        </mxCell>
        <mxCell id="z9_6NJVO3Y7MdxRCK-k6-6" value="36,000L&lt;br&gt;Biomass" style="whiteSpace=wrap;html=1;aspect=fixed;" parent="1" vertex="1">
          <mxGeometry x="360" y="40" width="80" height="80" as="geometry" />
        </mxCell>
        <mxCell id="z9_6NJVO3Y7MdxRCK-k6-8" value="1,728,000 EU" style="text;html=1;align=center;verticalAlign=middle;resizable=0;points=[];autosize=1;strokeColor=none;fillColor=none;" parent="1" vertex="1">
          <mxGeometry x="270" y="50" width="100" height="30" as="geometry" />
        </mxCell>
        <mxCell id="z9_6NJVO3Y7MdxRCK-k6-9" value="7,200s" style="text;html=1;align=center;verticalAlign=middle;resizable=0;points=[];autosize=1;strokeColor=none;fillColor=none;" parent="1" vertex="1">
          <mxGeometry x="290" y="80" width="60" height="30" as="geometry" />
        </mxCell>
        <mxCell id="z9_6NJVO3Y7MdxRCK-k6-13" value="" style="edgeStyle=orthogonalEdgeStyle;rounded=0;orthogonalLoop=1;jettySize=auto;html=1;" parent="1" source="z9_6NJVO3Y7MdxRCK-k6-10" target="z9_6NJVO3Y7MdxRCK-k6-12" edge="1">
          <mxGeometry relative="1" as="geometry" />
        </mxCell>
        <mxCell id="z9_6NJVO3Y7MdxRCK-k6-10" value="MV&lt;br&gt;Distillery" style="rhombus;whiteSpace=wrap;html=1;" parent="1" vertex="1">
          <mxGeometry x="520" y="40" width="80" height="80" as="geometry" />
        </mxCell>
        <mxCell id="z9_6NJVO3Y7MdxRCK-k6-20" value="" style="edgeStyle=orthogonalEdgeStyle;rounded=0;orthogonalLoop=1;jettySize=auto;html=1;" parent="1" source="z9_6NJVO3Y7MdxRCK-k6-12" target="z9_6NJVO3Y7MdxRCK-k6-19" edge="1">
          <mxGeometry relative="1" as="geometry" />
        </mxCell>
        <mxCell id="z9_6NJVO3Y7MdxRCK-k6-12" value="18,000L&lt;br&gt;Ethanol" style="whiteSpace=wrap;html=1;aspect=fixed;" parent="1" vertex="1">
          <mxGeometry x="680" y="40" width="80" height="80" as="geometry" />
        </mxCell>
        <mxCell id="z9_6NJVO3Y7MdxRCK-k6-14" value="691,200 EU" style="text;html=1;align=center;verticalAlign=middle;resizable=0;points=[];autosize=1;strokeColor=none;fillColor=none;" parent="1" vertex="1">
          <mxGeometry x="595" y="50" width="90" height="30" as="geometry" />
        </mxCell>
        <mxCell id="z9_6NJVO3Y7MdxRCK-k6-15" value="360s" style="text;html=1;align=center;verticalAlign=middle;resizable=0;points=[];autosize=1;strokeColor=none;fillColor=none;" parent="1" vertex="1">
          <mxGeometry x="615" y="80" width="50" height="30" as="geometry" />
        </mxCell>
        <mxCell id="z9_6NJVO3Y7MdxRCK-k6-22" value="" style="edgeStyle=orthogonalEdgeStyle;rounded=0;orthogonalLoop=1;jettySize=auto;html=1;" parent="1" source="z9_6NJVO3Y7MdxRCK-k6-19" target="z9_6NJVO3Y7MdxRCK-k6-21" edge="1">
          <mxGeometry relative="1" as="geometry" />
        </mxCell>
        <mxCell id="z9_6NJVO3Y7MdxRCK-k6-19" value="MV&lt;br&gt;Dehydrator" style="rhombus;whiteSpace=wrap;html=1;" parent="1" vertex="1">
          <mxGeometry x="680" y="200" width="80" height="80" as="geometry" />
        </mxCell>
        <mxCell id="z9_6NJVO3Y7MdxRCK-k6-44" value="" style="edgeStyle=orthogonalEdgeStyle;rounded=0;orthogonalLoop=1;jettySize=auto;html=1;" parent="1" source="z9_6NJVO3Y7MdxRCK-k6-21" target="z9_6NJVO3Y7MdxRCK-k6-43" edge="1">
          <mxGeometry relative="1" as="geometry" />
        </mxCell>
        <mxCell id="z9_6NJVO3Y7MdxRCK-k6-21" value="18,000L&lt;br&gt;Ethylene" style="whiteSpace=wrap;html=1;aspect=fixed;" parent="1" vertex="1">
          <mxGeometry x="680" y="360" width="80" height="80" as="geometry" />
        </mxCell>
        <mxCell id="z9_6NJVO3Y7MdxRCK-k6-23" value="3,456,000 EU" style="text;html=1;align=center;verticalAlign=middle;resizable=0;points=[];autosize=1;strokeColor=none;fillColor=none;" parent="1" vertex="1">
          <mxGeometry x="720" y="290" width="100" height="30" as="geometry" />
        </mxCell>
        <mxCell id="z9_6NJVO3Y7MdxRCK-k6-24" value="1,440s" style="text;html=1;align=center;verticalAlign=middle;resizable=0;points=[];autosize=1;strokeColor=none;fillColor=none;" parent="1" vertex="1">
          <mxGeometry x="720" y="320" width="60" height="30" as="geometry" />
        </mxCell>
        <mxCell id="z9_6NJVO3Y7MdxRCK-k6-27" value="" style="edgeStyle=orthogonalEdgeStyle;rounded=0;orthogonalLoop=1;jettySize=auto;html=1;" parent="1" source="z9_6NJVO3Y7MdxRCK-k6-25" target="z9_6NJVO3Y7MdxRCK-k6-26" edge="1">
          <mxGeometry relative="1" as="geometry" />
        </mxCell>
        <mxCell id="z9_6NJVO3Y7MdxRCK-k6-25" value="125,000L&lt;br&gt;Water" style="whiteSpace=wrap;html=1;aspect=fixed;" parent="1" vertex="1">
          <mxGeometry x="520" y="200" width="80" height="80" as="geometry" />
        </mxCell>
        <mxCell id="z9_6NJVO3Y7MdxRCK-k6-33" value="" style="edgeStyle=orthogonalEdgeStyle;rounded=0;orthogonalLoop=1;jettySize=auto;html=1;" parent="1" source="z9_6NJVO3Y7MdxRCK-k6-26" target="z9_6NJVO3Y7MdxRCK-k6-32" edge="1">
          <mxGeometry relative="1" as="geometry" />
        </mxCell>
        <mxCell id="z9_6NJVO3Y7MdxRCK-k6-26" value="MV&lt;br&gt;Electrolyzer" style="rhombus;whiteSpace=wrap;html=1;" parent="1" vertex="1">
          <mxGeometry x="360" y="200" width="80" height="80" as="geometry" />
        </mxCell>
        <mxCell id="z9_6NJVO3Y7MdxRCK-k6-35" value="" style="edgeStyle=orthogonalEdgeStyle;rounded=0;orthogonalLoop=1;jettySize=auto;html=1;" parent="1" source="z9_6NJVO3Y7MdxRCK-k6-32" target="z9_6NJVO3Y7MdxRCK-k6-34" edge="1">
          <mxGeometry relative="1" as="geometry" />
        </mxCell>
        <mxCell id="z9_6NJVO3Y7MdxRCK-k6-32" value="MV&lt;br&gt;Electrolyzer" style="rhombus;whiteSpace=wrap;html=1;" parent="1" vertex="1">
          <mxGeometry x="200" y="200" width="80" height="80" as="geometry" />
        </mxCell>
        <mxCell id="z9_6NJVO3Y7MdxRCK-k6-34" value="125,000L&lt;br&gt;Oxygen" style="whiteSpace=wrap;html=1;aspect=fixed;" parent="1" vertex="1">
          <mxGeometry x="40" y="200" width="80" height="80" as="geometry" />
        </mxCell>
        <mxCell id="z9_6NJVO3Y7MdxRCK-k6-38" value="11,250,000 EU" style="text;html=1;align=center;verticalAlign=middle;resizable=0;points=[];autosize=1;strokeColor=none;fillColor=none;" parent="1" vertex="1">
          <mxGeometry x="115" y="210" width="100" height="30" as="geometry" />
        </mxCell>
        <mxCell id="z9_6NJVO3Y7MdxRCK-k6-39" value="4,687.5s" style="text;html=1;align=center;verticalAlign=middle;resizable=0;points=[];autosize=1;strokeColor=none;fillColor=none;" parent="1" vertex="1">
          <mxGeometry x="130" y="240" width="70" height="30" as="geometry" />
        </mxCell>
        <mxCell id="z9_6NJVO3Y7MdxRCK-k6-47" value="" style="edgeStyle=orthogonalEdgeStyle;rounded=0;orthogonalLoop=1;jettySize=auto;html=1;" parent="1" source="z9_6NJVO3Y7MdxRCK-k6-43" target="z9_6NJVO3Y7MdxRCK-k6-46" edge="1">
          <mxGeometry relative="1" as="geometry" />
        </mxCell>
        <mxCell id="z9_6NJVO3Y7MdxRCK-k6-43" value="MV&lt;br&gt;CR" style="rhombus;whiteSpace=wrap;html=1;" parent="1" vertex="1">
          <mxGeometry x="360" y="360" width="80" height="80" as="geometry" />
        </mxCell>
        <mxCell id="z9_6NJVO3Y7MdxRCK-k6-45" value="" style="edgeStyle=segmentEdgeStyle;endArrow=classic;html=1;curved=0;rounded=0;endSize=8;startSize=8;sourcePerimeterSpacing=0;targetPerimeterSpacing=0;exitX=0.5;exitY=1;exitDx=0;exitDy=0;" parent="1" source="z9_6NJVO3Y7MdxRCK-k6-34" edge="1">
          <mxGeometry width="100" relative="1" as="geometry">
            <mxPoint x="80" y="360" as="sourcePoint" />
            <mxPoint x="360" y="400" as="targetPoint" />
            <Array as="points">
              <mxPoint x="80" y="400" />
            </Array>
          </mxGeometry>
        </mxCell>
        <mxCell id="z9_6NJVO3Y7MdxRCK-k6-46" value="27,000L&lt;br&gt;Polyethylene" style="whiteSpace=wrap;html=1;aspect=fixed;" parent="1" vertex="1">
          <mxGeometry x="360" y="520" width="80" height="80" as="geometry" />
        </mxCell>
        <mxCell id="z9_6NJVO3Y7MdxRCK-k6-48" value="500s" style="text;html=1;align=center;verticalAlign=middle;resizable=0;points=[];autosize=1;strokeColor=none;fillColor=none;" parent="1" vertex="1">
          <mxGeometry x="400" y="480" width="50" height="30" as="geometry" />
        </mxCell>
        <mxCell id="z9_6NJVO3Y7MdxRCK-k6-49" value="1,200,000 EU" style="text;html=1;align=center;verticalAlign=middle;resizable=0;points=[];autosize=1;strokeColor=none;fillColor=none;" parent="1" vertex="1">
          <mxGeometry x="400" y="450" width="100" height="30" as="geometry" />
        </mxCell>
        <mxCell id="z9_6NJVO3Y7MdxRCK-k6-51" value="Total EU Cost: 18,325,200 EU (61.3% to electrolyzing water)" style="rounded=0;whiteSpace=wrap;html=1;" parent="1" vertex="1">
          <mxGeometry x="-200" y="40" width="160" height="80" as="geometry" />
        </mxCell>
        <mxCell id="z9_6NJVO3Y7MdxRCK-k6-52" value="Total Time: 9,500s (roughly 160 minutes or 2.6h)" style="rounded=0;whiteSpace=wrap;html=1;" parent="1" vertex="1">
          <mxGeometry x="-200" y="120" width="160" height="80" as="geometry" />
        </mxCell>
        <mxCell id="z9_6NJVO3Y7MdxRCK-k6-53" value="Production rate: 2.84L/s&lt;br&gt;or 10,231L/h&lt;br&gt;of Polyethylene" style="rounded=0;whiteSpace=wrap;html=1;" parent="1" vertex="1">
          <mxGeometry x="-200" y="200" width="160" height="80" as="geometry" />
        </mxCell>
        <mxCell id="z9_6NJVO3Y7MdxRCK-k6-54" value="Energy Usage: 588 EU/t" style="rounded=0;whiteSpace=wrap;html=1;" parent="1" vertex="1">
          <mxGeometry x="-200" y="280" width="160" height="80" as="geometry" />
        </mxCell>
        <mxCell id="z9_6NJVO3Y7MdxRCK-k6-55" value="120 EU/t" style="text;html=1;align=center;verticalAlign=middle;resizable=0;points=[];autosize=1;strokeColor=none;fillColor=none;" parent="1" vertex="1">
          <mxGeometry x="335" y="465" width="70" height="30" as="geometry" />
        </mxCell>
        <mxCell id="z9_6NJVO3Y7MdxRCK-k6-56" value="120 EU/t" style="text;html=1;align=center;verticalAlign=middle;resizable=0;points=[];autosize=1;strokeColor=none;fillColor=none;" parent="1" vertex="1">
          <mxGeometry x="650" y="310" width="70" height="30" as="geometry" />
        </mxCell>
        <mxCell id="z9_6NJVO3Y7MdxRCK-k6-59" value="240 EU/t" style="text;html=1;align=center;verticalAlign=middle;resizable=0;points=[];autosize=1;strokeColor=none;fillColor=none;" parent="1" vertex="1">
          <mxGeometry x="130" y="260" width="70" height="30" as="geometry" />
        </mxCell>
        <mxCell id="z9_6NJVO3Y7MdxRCK-k6-60" value="96 EU/t" style="text;html=1;align=center;verticalAlign=middle;resizable=0;points=[];autosize=1;strokeColor=none;fillColor=none;" parent="1" vertex="1">
          <mxGeometry x="610" y="105" width="60" height="30" as="geometry" />
        </mxCell>
        <mxCell id="z9_6NJVO3Y7MdxRCK-k6-61" value="12 EU/t" style="text;html=1;align=center;verticalAlign=middle;resizable=0;points=[];autosize=1;strokeColor=none;fillColor=none;" parent="1" vertex="1">
          <mxGeometry x="290" y="105" width="60" height="30" as="geometry" />
        </mxCell>
        <mxCell id="z9_6NJVO3Y7MdxRCK-k6-62" value="EU per L of PE:&lt;br&gt;679 EU/L" style="rounded=0;whiteSpace=wrap;html=1;" parent="1" vertex="1">
          <mxGeometry x="-200" y="360" width="160" height="80" as="geometry" />
        </mxCell>
      </root>
    </mxGraphModel>
  </diagram>
</mxfile>
